<?xml version="1.0" encoding="UTF-8" standalone="no"?>
<svg width="324px" height="90px" viewBox="0 0 324 90" version="1.1" xmlns="http://www.w3.org/2000/svg" xmlns:xlink="http://www.w3.org/1999/xlink" xmlns:sketch="http://www.bohemiancoding.com/sketch/ns">
    <!-- Generator: Sketch 3.4.2 (15855) - http://www.bohemiancoding.com/sketch -->
    <title>04-Vector</title>
    <desc>Created with Sketch.</desc>
    <defs>
        <path id="path-1" d="M0,0.146 L324,0.146 L324,89.94 L0,89.94"></path>
    </defs>
    <g id="Page-1" stroke="none" stroke-width="1" fill="none" fill-rule="evenodd" sketch:type="MSPage">
        <g id="04-Vector" sketch:type="MSLayerGroup">
            <g id="Group-7">
                <mask id="mask-2" sketch:name="Clip 2" fill="white">
                    <use xlink:href="#path-1"></use>
                </mask>
                <g id="Clip-2"></g>
                <path d="M144.611,89.998 L127.52,89.998 L127.52,52.064 L95.541,52.064 L95.541,89.998 L78.321,89.998 L78.321,0.146 L95.541,0.146 L95.541,36.137 L127.52,36.137 L127.52,0.146 L144.611,0.146 L144.611,89.998" id="Fill-1" fill="#343433" sketch:type="MSShapeGroup" mask="url(#mask-2)"></path>
                <path d="M161.566,0.146 L178.658,0.146 L178.658,89.94 L161.566,89.94 L161.566,0.146 Z" id="Fill-3" fill="#343433" sketch:type="MSShapeGroup" mask="url(#mask-2)"></path>
                <path d="M212.11,37.045 L248.494,37.045 L248.494,52.967 L212.11,52.967 L212.11,61.643 C212.11,69.928 215.348,73.167 223.502,73.167 L255.093,73.167 L255.093,89.998 L223.374,89.998 C204.86,89.998 195.021,78.604 195.021,61.384 L195.021,28.758 C195.021,11.539 204.86,0.146 223.374,0.146 L255.093,0.146 L255.093,16.976 L223.502,16.976 C215.348,16.976 212.11,20.084 212.11,28.37 L212.11,37.045" id="Fill-4" fill="#343433" sketch:type="MSShapeGroup" mask="url(#mask-2)"></path>
                <path d="M268.585,61.643 L268.585,0.146 L285.677,0.146 L285.677,61.384 C285.677,69.669 288.782,73.167 296.94,73.167 L324,73.167 L324,89.998 L296.809,89.998 C278.425,89.998 268.585,78.864 268.585,61.643" id="Fill-5" fill="#343433" sketch:type="MSShapeGroup" mask="url(#mask-2)"></path>
                <path d="M43.883,28.501 L43.883,90 L26.795,90 L26.795,27.637 C26.795,19.351 23.688,15.854 15.531,15.854 L0,15.854 L0,0.147 L15.659,0.147 C34.045,0.147 43.883,11.282 43.883,28.501" id="Fill-6" fill="#343433" sketch:type="MSShapeGroup" mask="url(#mask-2)"></path>
            </g>
            <path d="M67.965,0.146 L38.616,0.146 C43.64,4.028 47.241,9.429 49.207,16.067 L67.965,16.067 L67.965,0.146" id="Fill-8" fill="#343433" sketch:type="MSShapeGroup"></path>
        </g>
    </g>
</svg>